<svg version="1.1" id="Layer_1" xmlns="http://www.w3.org/2000/svg" xmlns:xlink="http://www.w3.org/1999/xlink" x="0px" y="0px"
	 width="100%" viewBox="0 0 512 512" enable-background="new 0 0 512 512" xml:space="preserve">
<path fill="#FF9F40" opacity="1.000000" stroke="none" 
	d="
M258.011993,179.161331 
	C290.502075,186.397171 322.932739,193.870422 354.371124,205.008759 
	C376.646545,212.900757 397.995941,222.824600 416.691986,237.408813 
	C441.196381,256.523895 457.137634,281.318176 464.089996,311.874329 
	C468.271210,330.250977 469.189240,348.892578 467.742584,367.403778 
	C465.850769,391.610901 457.944427,414.151672 444.782227,434.865387 
	C428.842773,459.949860 406.923584,477.989044 380.495758,490.723999 
	C362.788269,499.256866 344.129028,505.180786 324.585999,508.020172 
	C317.816711,509.003632 311.049530,510.004486 304.295593,511.086273 
	C303.578156,511.201172 302.956726,511.915527 302.645386,512.675903 
	C288.312439,513.000000 273.624878,513.000000 258.468384,512.531372 
	C258.003876,475.428741 258.008331,438.794830 258.012787,402.160889 
	C274.123901,402.327667 289.882294,400.472290 305.214539,395.090973 
	C317.456940,390.794128 327.958405,384.185913 335.046448,373.272339 
	C342.242554,362.192413 343.106781,344.643738 331.958923,334.581482 
	C324.654358,327.988281 315.932373,323.524719 306.468933,320.885284 
	C290.135590,316.329834 273.706512,312.117615 257.354736,307.072388 
	C257.594147,304.251068 257.970856,302.118866 257.972931,299.986298 
	C258.012421,259.711334 258.007599,219.436325 258.011993,179.161331 
z"/>
<path fill="#FFBE40" opacity="1.000000" stroke="none" 
	d="
M257.616211,179.083389 
	C258.007599,219.436325 258.012421,259.711334 257.972931,299.986298 
	C257.970856,302.118866 257.594147,304.251068 257.147644,306.725220 
	C246.350281,304.595459 235.659195,302.594238 225.273911,299.549835 
	C206.371399,294.008698 187.321350,288.712830 168.940842,281.717194 
	C148.127197,273.795502 128.569321,263.293030 111.165527,248.873062 
	C87.570480,229.323334 72.514679,204.811005 67.301323,174.830780 
	C65.057510,161.927414 64.303490,148.421204 65.289040,135.371353 
	C67.364456,107.890221 77.032425,83.010162 94.881126,61.551270 
	C112.674423,40.158981 134.937393,25.533133 160.894897,15.867550 
	C178.832932,9.188107 197.193329,4.870603 216.183838,2.945841 
	C217.054657,2.857582 217.857834,2.101972 218.346252,1.328590 
	C231.020889,1.000000 244.041794,1.000000 257.531006,1.468657 
	C257.997192,37.903046 257.995087,73.868782 257.992981,109.834511 
	C241.950073,109.988441 226.041122,111.144279 210.888748,117.006599 
	C203.642365,119.810165 196.450012,122.762459 191.815994,129.659958 
	C185.077377,139.690094 187.727005,147.568436 195.973450,155.127731 
	C205.141083,163.531479 217.141449,167.289948 228.866287,170.948914 
	C238.242599,173.874969 247.763611,176.337296 257.616211,179.083389 
z"/>
<path fill="#FFBE40" opacity="1.000000" stroke="none" 
	d="
M257.555420,402.090454 
	C258.008331,438.794830 258.003876,475.428741 257.999695,512.531372 
	C246.645767,513.000000 235.291550,513.000000 223.468658,513.000000 
	C222.378723,512.335999 221.839493,511.203094 221.123947,511.077942 
	C209.118668,508.977539 196.912476,507.735199 185.105560,504.850708 
	C159.032349,498.480865 134.964722,487.658936 113.494110,471.140045 
	C93.317169,455.616455 78.243401,436.086945 67.322647,413.434814 
	C58.508556,395.152344 52.507923,375.815735 49.956139,355.531860 
	C48.796108,346.310913 47.315411,337.130554 46.026741,327.925232 
	C45.870533,326.809418 46.005466,325.652832 46.005466,324.019592 
	C87.144821,320.093018 128.032074,316.190491 169.758438,312.207886 
	C170.790207,317.147491 172.126511,322.384125 172.949814,327.700226 
	C175.625732,344.978729 181.273575,361.119965 192.439529,374.708954 
	C201.995880,386.339050 214.452118,394.284454 229.119858,397.810516 
	C238.255295,400.006653 247.759399,400.669250 257.555420,402.090454 
z"/>
<path fill="#FF9F40" opacity="1.000000" stroke="none" 
	d="
M258.438538,109.907349 
	C257.995087,73.868782 257.997192,37.903046 257.999634,1.468657 
	C269.687561,1.000000 281.375122,1.000000 293.531342,1.000004 
	C294.634369,1.663206 295.225006,2.856265 295.909485,2.912774 
	C317.898468,4.728113 339.085449,9.921599 359.562439,18.025190 
	C374.287048,23.852337 387.860687,31.638096 400.243835,41.628700 
	C416.002991,54.343040 428.644897,69.614975 437.681366,87.587769 
	C444.813934,101.773872 450.051300,116.822151 451.952118,132.733765 
	C453.486053,145.573959 454.519409,158.473953 455.855774,172.177795 
	C449.215027,172.488983 443.697205,172.790054 438.175903,172.998474 
	C420.003540,173.684479 401.828339,174.296768 383.657257,175.014557 
	C368.307739,175.620895 352.960724,176.298325 337.616943,177.034698 
	C334.898956,177.165131 332.202240,177.739166 329.029358,178.171967 
	C326.632385,168.084366 324.179504,158.392120 322.041168,148.630951 
	C317.585724,128.292953 303.617218,117.799347 284.617310,113.200569 
	C276.268829,111.179886 267.475494,110.997330 258.438538,109.907349 
z"/>
</svg>